<?xml version="1.0" encoding="UTF-8" standalone="no"?>
<!-- Created with Inkscape (http://www.inkscape.org/) -->

<svg
   xmlns:dc="http://purl.org/dc/elements/1.1/"
   xmlns:cc="http://creativecommons.org/ns#"
   xmlns:rdf="http://www.w3.org/1999/02/22-rdf-syntax-ns#"
   xmlns:svg="http://www.w3.org/2000/svg"
   xmlns="http://www.w3.org/2000/svg"
   xmlns:sodipodi="http://sodipodi.sourceforge.net/DTD/sodipodi-0.dtd"
   xmlns:inkscape="http://www.inkscape.org/namespaces/inkscape"
   width="157.67375mm"
   height="68.201141mm"
   viewBox="0 0 157.67375 68.201141"
   version="1.1"
   id="svg8"
   inkscape:version="0.92.4 5da689c313, 2019-01-14"
   sodipodi:docname="Logo (sin color).svg">
  <defs
     id="defs2" />
  <sodipodi:namedview
     id="base"
     pagecolor="#ffffff"
     bordercolor="#666666"
     borderopacity="1.0"
     inkscape:pageopacity="0.0"
     inkscape:pageshadow="2"
     inkscape:zoom="1.979899"
     inkscape:cx="132.22722"
     inkscape:cy="145.43114"
     inkscape:document-units="mm"
     inkscape:current-layer="layer1"
     showgrid="false"
     inkscape:window-width="1920"
     inkscape:window-height="994"
     inkscape:window-x="0"
     inkscape:window-y="0"
     inkscape:window-maximized="1"
     fit-margin-top="0"
     fit-margin-left="0"
     fit-margin-right="0"
     fit-margin-bottom="0" />
  <metadata
     id="metadata5">
    <rdf:RDF>
      <cc:Work
         rdf:about="">
        <dc:format>image/svg+xml</dc:format>
        <dc:type
           rdf:resource="http://purl.org/dc/dcmitype/StillImage" />
        <dc:title></dc:title>
      </cc:Work>
    </rdf:RDF>
  </metadata>
  <g
     inkscape:label="Capa 1"
     inkscape:groupmode="layer"
     id="layer1"
     transform="translate(-46.473387,-144.11336)">
    <rect
       style="opacity:1;stroke-width:0;stroke-miterlimit:4;stroke-dasharray:none;paint-order:normal"
       id="rect4524"
       width="50"
       height="45.599998"
       x="100"
       y="151.40001"
       rx="4"
       ry="4" />
    <rect
       style="opacity:1;fill:#ffffff;stroke-width:0;stroke-miterlimit:4;stroke-dasharray:none;paint-order:normal"
       id="rect4524-3"
       width="44"
       height="40"
       x="103"
       y="154.2"
       rx="3.5200002"
       ry="3.5087724" />
    <ellipse
       style="opacity:1;fill:#000000;stroke-width:0;stroke-miterlimit:4;stroke-dasharray:none;paint-order:normal"
       id="path4541"
       cx="125.5"
       cy="174.7"
       rx="14.5"
       ry="14" />
    <ellipse
       style="opacity:1;fill:#ffffff;stroke-width:0;stroke-miterlimit:4;stroke-dasharray:none;paint-order:normal"
       id="path4541-6"
       cx="125.5"
       cy="174.7"
       rx="11.5"
       ry="11" />
    <path
       style="fill:none;stroke:#000000;stroke-width:3;stroke-linecap:butt;stroke-linejoin:miter;stroke-miterlimit:4;stroke-dasharray:none;stroke-opacity:1"
       d="m 103,154.2 c 0,0 7.06325,-8.13913 12.5,-8.4 6.32606,-0.30354 12.66943,-0.18705 19,0 5.43675,0.16064 12.5,8.4 12.5,8.4"
       id="path4560"
       inkscape:connector-curvature="0"
       sodipodi:nodetypes="cssc" />
    <path
       style="fill:none;stroke:#000000;stroke-width:1.79999995;stroke-linecap:butt;stroke-linejoin:miter;stroke-miterlimit:4;stroke-dasharray:none;stroke-opacity:1"
       d="m 116.6,197 c 0,0 0.15337,2.57403 0.80885,3.658 0.7185,1.18819 2.08746,2.05912 7.04513,2.22087 4.2491,0.13863 7.26737,-0.71803 7.93702,-2.22087 C 132.88149,199.55723 133.2,197 133.2,197 Z"
       id="path4564"
       inkscape:connector-curvature="0"
       sodipodi:nodetypes="cssscc" />
    <path
       style="fill:none;stroke:#000000;stroke-width:1.829;stroke-linecap:butt;stroke-linejoin:miter;stroke-miterlimit:4;stroke-dasharray:none;stroke-opacity:1"
       d="m 120.70959,202.94952 c 0,0 0.0758,1.38712 0.39968,1.97126 0.35503,0.64031 1.03147,1.10964 3.4812,1.19681 2.0996,0.0747 3.59102,-0.38694 3.92191,-1.19681 0.24236,-0.59319 0.39975,-1.97126 0.39975,-1.97126 z"
       id="path4564-7"
       inkscape:connector-curvature="0"
       sodipodi:nodetypes="cssscc" />
    <path
       style="fill:none;stroke:#000000;stroke-width:0.62900001;stroke-linecap:butt;stroke-linejoin:miter;stroke-miterlimit:4;stroke-dasharray:none;stroke-opacity:1"
       d="m 124.35435,206.8793 c 0,0 -0.0749,1.63029 0,2.44025 0.0837,0.90503 -0.40889,2.68341 0.5,2.68045 0.94175,-0.003 0.41634,-1.84265 0.5,-2.78068 0.0695,-0.77969 0,-2.34837 0,-2.34837 z"
       id="path4564-7-5"
       inkscape:connector-curvature="0"
       sodipodi:nodetypes="caaacc" />
    <path
       style="fill:none;stroke:#000000;stroke-width:1.60000002;stroke-linecap:butt;stroke-linejoin:miter;stroke-miterlimit:4;stroke-dasharray:none;stroke-opacity:1"
       d="m 49.532278,164.4009 c 0,0 5.018602,-10.14949 9.587722,-10.2009 15.150828,-0.17048 42.3432,0.0668 42.3432,0.0668 l 0.0992,10.70203 z"
       id="path4598"
       inkscape:connector-curvature="0"
       sodipodi:nodetypes="csccc" />
    <path
       style="fill:none;stroke:#000000;stroke-width:2.5;stroke-linecap:butt;stroke-linejoin:miter;stroke-miterlimit:4;stroke-dasharray:none;stroke-opacity:1"
       d="m 51.637026,164.4009 c -1.147021,0.006 -2.384214,-0.26616 -3.058232,1.06028 -0.73293,1.44238 -0.971679,4.01456 -0.787024,10.04103 0.08664,2.82762 -0.127639,-0.66772 0.303403,7.54246 0.109758,2.09056 -0.08924,3.55889 1.763086,3.62026 15.064977,0.49911 51.703741,-0.18088 51.703741,-0.18088 V 164.969 l -25.78079,-0.26742 c 0,0 -14.96224,-0.35191 -24.144184,-0.30068 z"
       id="path4600"
       inkscape:connector-curvature="0"
       sodipodi:nodetypes="ssssscccs" />
    <path
       style="fill:none;stroke:#000000;stroke-width:1.60000002;stroke-linecap:butt;stroke-linejoin:miter;stroke-miterlimit:4;stroke-dasharray:none;stroke-opacity:1"
       d="m 201.08865,164.3341 c 0,0 -5.0186,-10.14949 -9.58772,-10.2009 -15.15083,-0.17048 -42.3432,0.0668 -42.3432,0.0668 l -0.0992,10.70203 z"
       id="path4598-3"
       inkscape:connector-curvature="0"
       sodipodi:nodetypes="csccc" />
    <path
       style="fill:none;stroke:#000000;stroke-width:2.5;stroke-linecap:butt;stroke-linejoin:miter;stroke-miterlimit:4;stroke-dasharray:none;stroke-opacity:1"
       d="m 198.98351,164.33393 c 1.14702,0.006 2.38421,-0.26616 3.05823,1.06028 0.73293,1.44238 0.97168,4.01456 0.78702,10.04103 -0.0866,2.82762 0.12764,-0.66772 -0.3034,7.54246 -0.10976,2.09056 0.0892,3.55889 -1.76309,3.62026 -15.06498,0.49911 -51.70374,-0.18088 -51.70374,-0.18088 v -21.51505 l 25.78079,-0.26742 c 0,0 14.96224,-0.35191 24.14419,-0.30068 z"
       id="path4600-5"
       inkscape:connector-curvature="0"
       sodipodi:nodetypes="ssssscccs" />
    <ellipse
       style="opacity:1;fill:#000000;stroke-width:2.00945711;stroke-miterlimit:4;stroke-dasharray:none;paint-order:normal"
       id="path4620"
       cx="125.44085"
       cy="174.81918"
       rx="6.8508182"
       ry="6.6145835" />
    <ellipse
       style="opacity:1;fill:#ffffff;stroke-width:1.53723037;stroke-miterlimit:4;stroke-dasharray:none;paint-order:normal"
       id="path4620-6"
       cx="125.44083"
       cy="174.8192"
       rx="5.1971722"
       ry="5.1026783" />
    <rect
       style="opacity:1;fill:#000000;stroke-width:1.60000002;stroke-miterlimit:4;stroke-dasharray:none;paint-order:normal"
       id="rect4673"
       width="53.654354"
       height="3.541321"
       x="48.250259"
       y="168.41431"
       rx="3.9999974"
       ry="3.541321" />
    <rect
       style="opacity:1;fill:#000000;stroke-width:1.60000002;stroke-miterlimit:4;stroke-dasharray:none;paint-order:normal"
       id="rect4673-1"
       width="53.654354"
       height="3.541321"
       x="47.941471"
       y="173.9558"
       rx="3.9999974"
       ry="3.541321" />
    <rect
       style="opacity:1;fill:#000000;stroke-width:1.60000002;stroke-miterlimit:4;stroke-dasharray:none;paint-order:normal"
       id="rect4673-2"
       width="53.654354"
       height="3.541321"
       x="48.008289"
       y="179.36801"
       rx="3.9999974"
       ry="3.541321" />
    <rect
       style="opacity:1;fill:#000000;stroke-width:1.28852999;stroke-miterlimit:4;stroke-dasharray:none;paint-order:normal"
       id="rect4673-7"
       width="49.84576"
       height="2.4722428"
       x="51.616432"
       y="159.05551"
       rx="3.7160623"
       ry="2.4722428" />
    <rect
       style="opacity:1;fill:#000000;stroke-width:0.86621785;stroke-miterlimit:4;stroke-dasharray:none;paint-order:normal"
       id="rect4673-0"
       width="46.304443"
       height="1.2027127"
       x="54.823654"
       y="155.78146"
       rx="3.4520526"
       ry="1.2027127" />
    <rect
       style="opacity:1;fill:#000000;stroke-width:1.60000002;stroke-miterlimit:4;stroke-dasharray:none;paint-order:normal"
       id="rect4673-9"
       width="53.654354"
       height="3.541321"
       x="149.19057"
       y="168.18044"
       rx="2.5968349"
       ry="3.541321" />
    <rect
       style="opacity:1;fill:#000000;stroke-width:1.60000002;stroke-miterlimit:4;stroke-dasharray:none;paint-order:normal"
       id="rect4673-1-3"
       width="53.654354"
       height="3.541321"
       x="148.88177"
       y="173.72192"
       rx="2.0622959"
       ry="3.541321" />
    <rect
       style="opacity:1;fill:#000000;stroke-width:1.60000002;stroke-miterlimit:4;stroke-dasharray:none;paint-order:normal"
       id="rect4673-2-6"
       width="53.654354"
       height="3.541321"
       x="148.94859"
       y="179.13414"
       rx="2.596837"
       ry="3.541321" />
    <rect
       style="opacity:1;fill:#000000;stroke-width:1.3022747;stroke-miterlimit:4;stroke-dasharray:none;paint-order:normal"
       id="rect4673-7-0"
       width="50.914841"
       height="2.4722428"
       x="148.41408"
       y="158.82164"
       rx="1.8427557"
       ry="2.4722428" />
    <rect
       style="opacity:1;fill:#000000;stroke-width:0.86621785;stroke-miterlimit:4;stroke-dasharray:none;paint-order:normal"
       id="rect4673-0-6"
       width="46.304443"
       height="1.2027127"
       x="149.20497"
       y="155.99538"
       rx="0"
       ry="1.2027127" />
  </g>
</svg>
